<svg xmlns="http://www.w3.org/2000/svg" width="115.477" height="115.433" viewBox="0 0 115.477 115.433">
  <path id="bomb-solid" d="M99.351,19.957,87.623,31.683,93.6,37.658a5.389,5.389,0,0,1,0,7.644l-3.924,3.924A46.918,46.918,0,1,1,66.219,25.8l3.924-3.924a5.391,5.391,0,0,1,7.646,0l5.977,5.976L95.494,16.123Zm13.42-6.427h-5.413a2.706,2.706,0,1,0,0,5.412h5.413a2.706,2.706,0,1,0,0-5.412ZM99.238,0a2.714,2.714,0,0,0-2.706,2.706V8.118a2.707,2.707,0,0,0,5.413,0V2.706A2.714,2.714,0,0,0,99.238,0Zm7.646,12.4,3.834-3.833a2.711,2.711,0,1,0-3.834-3.833L103.05,8.569a2.711,2.711,0,0,0,3.834,3.833Zm-15.292,0a2.711,2.711,0,0,0,3.834-3.833L91.593,4.735a2.711,2.711,0,0,0-3.834,3.833Zm15.292,7.667A2.711,2.711,0,0,0,103.05,23.9l3.834,3.833a2.711,2.711,0,1,0,3.834-3.833ZM25.261,61.336A14.447,14.447,0,0,1,39.7,46.9a3.608,3.608,0,1,0,0-7.216A21.685,21.685,0,0,0,18.043,61.336a3.609,3.609,0,0,0,7.217,0Z" fill="#6afdb8"/>
</svg>
