<svg id="bomb-solid" xmlns="http://www.w3.org/2000/svg" width="48" height="47.9" viewBox="0 0 48 47.9">
  <path id="bomb-solid-2" data-name="bomb-solid" d="M41.3,8.281l-4.875,4.866,2.484,2.48a2.234,2.234,0,0,1,0,3.172l-1.631,1.628a19.508,19.508,0,1,1-9.75-9.722l1.631-1.628a2.244,2.244,0,0,1,3.178,0l2.484,2.48L39.694,6.69Zm5.578-2.667h-2.25a1.123,1.123,0,1,0,0,2.246h2.25a1.123,1.123,0,1,0,0-2.246ZM41.25,0a1.127,1.127,0,0,0-1.125,1.123V3.369a1.125,1.125,0,0,0,2.25,0V1.123A1.127,1.127,0,0,0,41.25,0Zm3.178,5.147,1.594-1.591a1.126,1.126,0,0,0-1.594-1.591L42.834,3.556a1.126,1.126,0,0,0,1.594,1.591Zm-6.356,0a1.126,1.126,0,0,0,1.594-1.591L38.072,1.965a1.126,1.126,0,0,0-1.594,1.591Zm6.356,3.181a1.126,1.126,0,0,0-1.594,1.591l1.594,1.591a1.126,1.126,0,1,0,1.594-1.591ZM10.5,25.452a6,6,0,0,1,6-5.989,1.5,1.5,0,1,0,0-2.994,9.006,9.006,0,0,0-9,8.983,1.5,1.5,0,0,0,3,0Z" fill="#db534c"/>
</svg>
