<svg xmlns="http://www.w3.org/2000/svg" width="44.196" height="57.786" viewBox="0 0 44.196 57.786"><path d="M4383.908,703.82l18.317,39.02s1.388,4.163,4.33,2.775,1.221-4.829,1.221-4.829l-7.826-16.429s1.61-7.049,11.934-6.55,13.155-2.775,13.155-2.775a10.323,10.323,0,0,0,2.886-4.163c.111-.055-10.49-22.757-10.49-22.757s-1.332,7.327-13.71,6.883-13.543,4.94-14.32,6.716a3.412,3.412,0,0,0-4-1.554C4382.965,701.045,4383.908,703.82,4383.908,703.82Z" transform="translate(-4383.729 -688.112)" fill="#db534c"/></svg>