<svg id="Component_2_4" data-name="Component 2 – 4" xmlns="http://www.w3.org/2000/svg" width="30.196" height="39.786" viewBox="0 0 30.196 39.786">
  <path id="Path_2" data-name="Path 2" d="M4383.852,698.927l12.515,26.866s.948,2.866,2.958,1.911.834-3.325.834-3.325l-5.347-11.312s1.1-4.853,8.153-4.509,8.988-1.911,8.988-1.911a7.1,7.1,0,0,0,1.972-2.866c.076-.038-7.167-15.668-7.167-15.668s-.91,5.044-9.367,4.739-9.253,3.4-9.784,4.624a2.326,2.326,0,0,0-2.73-1.07C4383.207,697.016,4383.852,698.927,4383.852,698.927Z" transform="translate(-4383.729 -688.112)" fill="#6afdb8"/>
</svg>
