<svg id="Component_3_1" data-name="Component 3 – 1" xmlns="http://www.w3.org/2000/svg" width="36.977" height="33.823" viewBox="0 0 36.977 33.823">
  <path id="Path_4" data-name="Path 4" d="M4383.834,697.306l10.721,22.839s.812,2.437,2.534,1.624.714-2.826.714-2.826l-4.581-9.617s.942-4.126,6.985-3.834,7.7-1.624,7.7-1.624a6.046,6.046,0,0,0,1.689-2.437c.065-.032-6.14-13.32-6.14-13.32s-.78,4.288-8.025,4.029-7.927,2.891-8.382,3.931a2,2,0,0,0-2.339-.91C4383.282,695.682,4383.834,697.306,4383.834,697.306Z" transform="translate(-4372.621 -688.112)" fill="#fff"/>
  <path id="Path_5" data-name="Path 5" d="M9.711-24.482,6.619-29.209h-.09L3.437-24.482H.8l4.314-6.453L1.1-37.047H3.725l2.8,4.242h.09l2.8-4.242h2.624L8.039-30.935l4.314,6.453Z" transform="translate(-0.795 48.047)" fill="#fff"/>
</svg>
