<svg xmlns="http://www.w3.org/2000/svg" width="58" height="58" viewBox="0 0 58 58">
  <g id="Group_8" data-name="Group 8" transform="translate(-1818 -41)">
    <path id="Path_6" data-name="Path 6" d="M2.074-18.428h6.46V0H2.074Zm3.23-2.04a4.089,4.089,0,0,1-2.856-.986A3.17,3.17,0,0,1,1.36-23.9,3.17,3.17,0,0,1,2.448-26.35,4.089,4.089,0,0,1,5.3-27.336,4.229,4.229,0,0,1,8.16-26.4,3.018,3.018,0,0,1,9.248-24,3.3,3.3,0,0,1,8.16-21.471,4.047,4.047,0,0,1,5.3-20.468Z" transform="translate(1841.641 83.336)" fill="#fff"/>
    <g id="Ellipse_12" data-name="Ellipse 12" transform="translate(1818 41)" fill="none" stroke="#fff" stroke-width="5">
      <circle cx="29" cy="29" r="29" stroke="none"/>
      <circle cx="29" cy="29" r="26.5" fill="none"/>
    </g>
  </g>
</svg>
